<svg viewBox="0 0 410 97" fill="none" xmlns="http://www.w3.org/2000/svg">
<path d="M68.8301 57.24C68.8301 59.4586 68.7021 61.8053 68.4461 64.28H12.3821C12.8088 71.192 15.1555 76.6106 19.4221 80.536C23.7741 84.376 29.0221 86.296 35.1661 86.296C40.2008 86.296 44.3821 85.144 47.7101 82.84C51.1234 80.4506 53.5128 77.2933 54.8781 73.368H67.4221C65.5448 80.1093 61.7901 85.6133 56.1581 89.88C50.5261 94.0613 43.5288 96.152 35.1661 96.152C28.5101 96.152 22.5368 94.6586 17.2461 91.672C12.0408 88.6853 7.94479 84.4613 4.95812 79C1.97145 73.4533 0.47812 67.0533 0.47812 59.8C0.47812 52.5466 1.92879 46.1893 4.83012 40.728C7.73145 35.2666 11.7848 31.0853 16.9901 28.184C22.2808 25.1973 28.3394 23.704 35.1661 23.704C41.8221 23.704 47.7101 25.1547 52.8301 28.056C57.9501 30.9573 61.8754 34.968 64.6061 40.088C67.4221 45.1226 68.8301 50.84 68.8301 57.24ZM56.7981 54.808C56.7981 50.3706 55.8168 46.5733 53.8541 43.416C51.8914 40.1733 49.2034 37.7413 45.7901 36.12C42.4621 34.4133 38.7501 33.56 34.6541 33.56C28.7661 33.56 23.7315 35.4373 19.5501 39.192C15.4541 42.9466 13.1075 48.152 12.5101 54.808H56.7981ZM168.807 23.576C174.268 23.576 179.132 24.728 183.399 27.032C187.666 29.2507 191.036 32.6213 193.511 37.144C195.986 41.6666 197.223 47.1706 197.223 53.656V95H185.703V55.32C185.703 48.3226 183.954 42.9893 180.455 39.32C177.042 35.5653 172.391 33.688 166.503 33.688C160.444 33.688 155.623 35.6506 152.039 39.576C148.455 43.416 146.663 49.0053 146.663 56.344V95H135.143V55.32C135.143 48.3226 133.394 42.9893 129.895 39.32C126.482 35.5653 121.831 33.688 115.943 33.688C109.884 33.688 105.063 35.6506 101.479 39.576C97.8951 43.416 96.1031 49.0053 96.1031 56.344V95H84.4551V24.856H96.1031V34.968C98.4071 31.2987 101.479 28.4827 105.319 26.52C109.244 24.5573 113.554 23.576 118.247 23.576C124.135 23.576 129.34 24.8987 133.863 27.544C138.386 30.1893 141.756 34.072 143.975 39.192C145.938 34.2426 149.18 30.4027 153.703 27.672C158.226 24.9413 163.26 23.576 168.807 23.576ZM228.228 37.912C230.617 33.7306 234.116 30.3173 238.724 27.672C243.332 25.0266 248.58 23.704 254.468 23.704C260.783 23.704 266.457 25.1973 271.492 28.184C276.527 31.1707 280.495 35.3947 283.396 40.856C286.297 46.232 287.748 52.504 287.748 59.672C287.748 66.7546 286.297 73.0693 283.396 78.616C280.495 84.1626 276.484 88.472 271.364 91.544C266.329 94.616 260.697 96.152 254.468 96.152C248.409 96.152 243.076 94.8293 238.468 92.184C233.945 89.5386 230.532 86.168 228.228 82.072V95H216.58V0.279991H228.228V37.912ZM275.844 59.672C275.844 54.3813 274.777 49.7733 272.644 45.848C270.511 41.9227 267.609 38.936 263.94 36.888C260.356 34.84 256.388 33.816 252.036 33.816C247.769 33.816 243.801 34.8827 240.132 37.016C236.548 39.064 233.647 42.0933 231.428 46.104C229.295 50.0293 228.228 54.5946 228.228 59.8C228.228 65.0906 229.295 69.7413 231.428 73.752C233.647 77.6773 236.548 80.7066 240.132 82.84C243.801 84.888 247.769 85.912 252.036 85.912C256.388 85.912 260.356 84.888 263.94 82.84C267.609 80.7066 270.511 77.6773 272.644 73.752C274.777 69.7413 275.844 65.048 275.844 59.672ZM317.538 34.456V75.8C317.538 79.2133 318.263 81.6453 319.714 83.096C321.165 84.4613 323.682 85.144 327.266 85.144H335.842V95H325.346C318.861 95 313.997 93.5066 310.754 90.52C307.511 87.5333 305.89 82.6266 305.89 75.8V34.456H296.802V24.856H305.89V7.19198H317.538V24.856H335.842V34.456H317.538ZM361.853 36.248C363.901 32.2373 366.802 29.1226 370.557 26.904C374.397 24.6853 379.048 23.576 384.509 23.576V35.608H381.437C368.381 35.608 361.853 42.6906 361.853 56.856V95H350.205V24.856H361.853V36.248ZM401.917 95.768C399.698 95.768 397.821 95 396.285 93.464C394.749 91.928 393.981 90.0506 393.981 87.832C393.981 85.6133 394.749 83.736 396.285 82.2C397.821 80.664 399.698 79.896 401.917 79.896C404.05 79.896 405.842 80.664 407.293 82.2C408.829 83.736 409.597 85.6133 409.597 87.832C409.597 90.0506 408.829 91.928 407.293 93.464C405.842 95 404.05 95.768 401.917 95.768Z" fill="url(#paint0_linear_383_2235)"/>
<defs>
<linearGradient id="paint0_linear_383_2235" x1="-5.40088" y1="50" x2="362.428" y2="-45.4442" gradientUnits="userSpaceOnUse">
<stop stop-color="#00FEC6"/>
<stop offset="0.238732" stop-color="#A2FE98"/>
<stop offset="0.473518" stop-color="#DCF07D"/>
<stop offset="0.725921" stop-color="#FEB2D9"/>
<stop offset="1" stop-color="#B4001A"/>
</linearGradient>
</defs>
</svg>
