<svg width="24" height="24" viewBox="0 0 24 24" fill="none" xmlns="http://www.w3.org/2000/svg">
    <path d="M8.78479 1L12.011 5.65934M8.78479 1L7.88188 3.83516M8.78479 1L3.77477 3.6044M8.78479 1L3.77477 2.13187M12.011 5.65934L15.2372 1M12.011 5.65934L16.1512 3.83516M12.011 5.65934L7.88188 3.83516M12.011 5.65934L8.06907 6.1978M12.011 5.65934L15.9199 6.1978M15.2372 1L16.1512 3.83516M15.2372 1L20.2472 2.13187M15.2372 1L20.2252 3.6044M16.1512 3.83516L20.2252 7.18681M16.1512 3.83516L20.2252 3.6044M7.88188 3.83516L3.77477 3.6044M7.88188 3.83516L3.77477 7.18681M7.88188 3.83516L8.06907 6.1978M3.77477 2.13187L1 7.84615M3.77477 2.13187V3.6044M1 7.84615L2.15616 12.9121M1 7.84615L3.77477 3.6044M1 7.84615L3.77477 7.18681M2.15616 12.9121L12.033 23M2.15616 12.9121L3.77477 7.18681M2.15616 12.9121L4.6997 13.1099M2.15616 12.9121L8.37738 17.5385M12.033 23L21.8549 12.9121M12.033 23L9.26927 14.8352M12.033 23L14.7307 14.8352M12.033 23L15.6336 17.5385M12.033 23L8.37738 17.5385M21.8549 12.9121L23 7.84615M21.8549 12.9121L20.2252 7.18681M21.8549 12.9121L19.2893 13.1099M23 7.84615L20.2472 2.13187M23 7.84615L20.2252 7.18681M23 7.84615L20.2252 3.6044M20.2472 2.13187L20.2252 3.6044M3.77477 3.6044V7.18681M3.77477 7.18681L8.06907 6.1978M3.77477 7.18681L4.6997 13.1099M8.06907 6.1978L4.6997 13.1099M8.06907 6.1978L12.011 11.7143M8.06907 6.1978L9.26927 14.8352M4.6997 13.1099L9.26927 14.8352M4.6997 13.1099L8.37738 17.5385M12.011 11.7143L15.9199 6.1978M12.011 11.7143L9.26927 14.8352M12.011 11.7143L14.7307 14.8352M15.9199 6.1978L19.2893 13.1099M15.9199 6.1978L14.7307 14.8352M15.9199 6.1978L20.2252 7.18681M9.26927 14.8352L8.37738 17.5385M14.7307 14.8352L19.2893 13.1099M14.7307 14.8352L15.6336 17.5385M19.2893 13.1099L15.6336 17.5385M19.2893 13.1099L20.2252 7.18681M20.2252 7.18681V3.6044" stroke="white" stroke-width="0.407592"/>
</svg>